<mxfile host="Electron" modified="2025-06-09T06:53:48.531Z" agent="Mozilla/5.0 (Windows NT 10.0; Win64; x64) AppleWebKit/537.36 (KHTML, like Gecko) draw.io/22.0.2 Chrome/114.0.5735.289 Electron/25.8.4 Safari/537.36" etag="8Im16yyEQ1PHe3QrURcI" version="22.0.2" type="device">
  <diagram name="Page-1" id="NMbm2L10Fkrgrs6cssXK">
    <mxGraphModel dx="2923" dy="1727" grid="1" gridSize="10" guides="1" tooltips="1" connect="1" arrows="1" fold="1" page="1" pageScale="1" pageWidth="1100" pageHeight="850" math="0" shadow="0">
      <root>
        <mxCell id="0" />
        <mxCell id="1" parent="0" />
        <mxCell id="KhTm1GceVhpEBvx1IbzX-1" value="Users" style="whiteSpace=wrap;html=1;align=center;" parent="1" vertex="1">
          <mxGeometry x="120" y="240" width="120" height="51" as="geometry" />
        </mxCell>
        <mxCell id="KhTm1GceVhpEBvx1IbzX-2" value="id" style="ellipse;whiteSpace=wrap;html=1;align=center;" parent="1" vertex="1">
          <mxGeometry x="-90" y="200" width="100" height="40" as="geometry" />
        </mxCell>
        <mxCell id="KhTm1GceVhpEBvx1IbzX-3" value="name" style="ellipse;whiteSpace=wrap;html=1;align=center;" parent="1" vertex="1">
          <mxGeometry x="-50" y="148" width="100" height="40" as="geometry" />
        </mxCell>
        <mxCell id="KhTm1GceVhpEBvx1IbzX-4" value="email" style="ellipse;whiteSpace=wrap;html=1;align=center;" parent="1" vertex="1">
          <mxGeometry x="20" y="108" width="100" height="40" as="geometry" />
        </mxCell>
        <mxCell id="KhTm1GceVhpEBvx1IbzX-5" value="phone" style="ellipse;whiteSpace=wrap;html=1;align=center;" parent="1" vertex="1">
          <mxGeometry x="287" y="200" width="100" height="40" as="geometry" />
        </mxCell>
        <mxCell id="KhTm1GceVhpEBvx1IbzX-6" value="password" style="ellipse;whiteSpace=wrap;html=1;align=center;" parent="1" vertex="1">
          <mxGeometry x="240" y="148" width="100" height="40" as="geometry" />
        </mxCell>
        <mxCell id="KhTm1GceVhpEBvx1IbzX-7" value="role" style="ellipse;whiteSpace=wrap;html=1;align=center;" parent="1" vertex="1">
          <mxGeometry x="250" y="320" width="100" height="40" as="geometry" />
        </mxCell>
        <mxCell id="KhTm1GceVhpEBvx1IbzX-8" value="isActive" style="ellipse;whiteSpace=wrap;html=1;align=center;" parent="1" vertex="1">
          <mxGeometry x="187" y="380" width="100" height="40" as="geometry" />
        </mxCell>
        <mxCell id="KhTm1GceVhpEBvx1IbzX-9" value="isVerified" style="ellipse;whiteSpace=wrap;html=1;align=center;" parent="1" vertex="1">
          <mxGeometry x="75" y="385" width="100" height="40" as="geometry" />
        </mxCell>
        <mxCell id="KhTm1GceVhpEBvx1IbzX-10" value="verificationToken" style="ellipse;whiteSpace=wrap;html=1;align=center;" parent="1" vertex="1">
          <mxGeometry x="-20" y="360" width="100" height="40" as="geometry" />
        </mxCell>
        <mxCell id="KhTm1GceVhpEBvx1IbzX-11" value="createdAt" style="ellipse;whiteSpace=wrap;html=1;align=center;" parent="1" vertex="1">
          <mxGeometry x="-91" y="270" width="100" height="40" as="geometry" />
        </mxCell>
        <mxCell id="KhTm1GceVhpEBvx1IbzX-12" value="updatedAt" style="ellipse;whiteSpace=wrap;html=1;align=center;" parent="1" vertex="1">
          <mxGeometry x="-70" y="320" width="100" height="40" as="geometry" />
        </mxCell>
        <mxCell id="KhTm1GceVhpEBvx1IbzX-13" value="" style="endArrow=none;html=1;rounded=0;entryX=0.25;entryY=1;entryDx=0;entryDy=0;" parent="1" source="KhTm1GceVhpEBvx1IbzX-9" target="KhTm1GceVhpEBvx1IbzX-1" edge="1">
          <mxGeometry relative="1" as="geometry">
            <mxPoint x="220" y="390" as="sourcePoint" />
            <mxPoint x="380" y="390" as="targetPoint" />
          </mxGeometry>
        </mxCell>
        <mxCell id="KhTm1GceVhpEBvx1IbzX-14" value="" style="endArrow=none;html=1;rounded=0;exitX=1.002;exitY=0.419;exitDx=0;exitDy=0;entryX=0;entryY=0.75;entryDx=0;entryDy=0;exitPerimeter=0;" parent="1" source="KhTm1GceVhpEBvx1IbzX-11" target="KhTm1GceVhpEBvx1IbzX-1" edge="1">
          <mxGeometry relative="1" as="geometry">
            <mxPoint x="60" y="316" as="sourcePoint" />
            <mxPoint x="85" y="250" as="targetPoint" />
          </mxGeometry>
        </mxCell>
        <mxCell id="KhTm1GceVhpEBvx1IbzX-15" value="" style="endArrow=none;html=1;rounded=0;exitX=1;exitY=0.5;exitDx=0;exitDy=0;entryX=0;entryY=0;entryDx=0;entryDy=0;" parent="1" source="KhTm1GceVhpEBvx1IbzX-2" target="KhTm1GceVhpEBvx1IbzX-1" edge="1">
          <mxGeometry relative="1" as="geometry">
            <mxPoint x="115" y="366" as="sourcePoint" />
            <mxPoint x="140" y="300" as="targetPoint" />
          </mxGeometry>
        </mxCell>
        <mxCell id="KhTm1GceVhpEBvx1IbzX-16" value="" style="endArrow=none;html=1;rounded=0;entryX=0.145;entryY=1.006;entryDx=0;entryDy=0;entryPerimeter=0;" parent="1" source="KhTm1GceVhpEBvx1IbzX-10" target="KhTm1GceVhpEBvx1IbzX-1" edge="1">
          <mxGeometry relative="1" as="geometry">
            <mxPoint x="125" y="376" as="sourcePoint" />
            <mxPoint x="150" y="310" as="targetPoint" />
          </mxGeometry>
        </mxCell>
        <mxCell id="KhTm1GceVhpEBvx1IbzX-17" value="" style="endArrow=none;html=1;rounded=0;exitX=0.944;exitY=0.293;exitDx=0;exitDy=0;exitPerimeter=0;entryX=0;entryY=1;entryDx=0;entryDy=0;" parent="1" source="KhTm1GceVhpEBvx1IbzX-12" target="KhTm1GceVhpEBvx1IbzX-1" edge="1">
          <mxGeometry relative="1" as="geometry">
            <mxPoint x="135" y="386" as="sourcePoint" />
            <mxPoint x="160" y="320" as="targetPoint" />
          </mxGeometry>
        </mxCell>
        <mxCell id="KhTm1GceVhpEBvx1IbzX-18" value="" style="endArrow=none;html=1;rounded=0;entryX=0.75;entryY=1;entryDx=0;entryDy=0;" parent="1" source="KhTm1GceVhpEBvx1IbzX-8" target="KhTm1GceVhpEBvx1IbzX-1" edge="1">
          <mxGeometry relative="1" as="geometry">
            <mxPoint x="145" y="396" as="sourcePoint" />
            <mxPoint x="170" y="330" as="targetPoint" />
          </mxGeometry>
        </mxCell>
        <mxCell id="KhTm1GceVhpEBvx1IbzX-19" value="" style="endArrow=none;html=1;rounded=0;exitX=0.25;exitY=0;exitDx=0;exitDy=0;" parent="1" source="KhTm1GceVhpEBvx1IbzX-1" target="KhTm1GceVhpEBvx1IbzX-4" edge="1">
          <mxGeometry relative="1" as="geometry">
            <mxPoint x="274" y="357" as="sourcePoint" />
            <mxPoint x="250" y="290" as="targetPoint" />
          </mxGeometry>
        </mxCell>
        <mxCell id="KhTm1GceVhpEBvx1IbzX-20" value="" style="endArrow=none;html=1;rounded=0;exitX=0.829;exitY=0.01;exitDx=0;exitDy=0;exitPerimeter=0;" parent="1" source="KhTm1GceVhpEBvx1IbzX-1" target="KhTm1GceVhpEBvx1IbzX-6" edge="1">
          <mxGeometry relative="1" as="geometry">
            <mxPoint x="284" y="367" as="sourcePoint" />
            <mxPoint x="260" y="300" as="targetPoint" />
          </mxGeometry>
        </mxCell>
        <mxCell id="KhTm1GceVhpEBvx1IbzX-21" value="" style="endArrow=none;html=1;rounded=0;exitX=1;exitY=0;exitDx=0;exitDy=0;entryX=0;entryY=1;entryDx=0;entryDy=0;" parent="1" source="KhTm1GceVhpEBvx1IbzX-1" target="KhTm1GceVhpEBvx1IbzX-5" edge="1">
          <mxGeometry relative="1" as="geometry">
            <mxPoint x="294" y="377" as="sourcePoint" />
            <mxPoint x="270" y="310" as="targetPoint" />
          </mxGeometry>
        </mxCell>
        <mxCell id="KhTm1GceVhpEBvx1IbzX-22" value="" style="endArrow=none;html=1;rounded=0;exitX=0.863;exitY=1.015;exitDx=0;exitDy=0;exitPerimeter=0;" parent="1" source="KhTm1GceVhpEBvx1IbzX-1" target="KhTm1GceVhpEBvx1IbzX-7" edge="1">
          <mxGeometry relative="1" as="geometry">
            <mxPoint x="250" y="270" as="sourcePoint" />
            <mxPoint x="305" y="234" as="targetPoint" />
          </mxGeometry>
        </mxCell>
        <mxCell id="KhTm1GceVhpEBvx1IbzX-23" value="" style="endArrow=none;html=1;rounded=0;entryX=0.112;entryY=0.006;entryDx=0;entryDy=0;entryPerimeter=0;" parent="1" source="KhTm1GceVhpEBvx1IbzX-3" target="KhTm1GceVhpEBvx1IbzX-1" edge="1">
          <mxGeometry relative="1" as="geometry">
            <mxPoint x="50" y="270" as="sourcePoint" />
            <mxPoint x="130" y="257" as="targetPoint" />
          </mxGeometry>
        </mxCell>
        <mxCell id="KhTm1GceVhpEBvx1IbzX-24" value="Books" style="whiteSpace=wrap;html=1;align=center;" parent="1" vertex="1">
          <mxGeometry x="1212" y="240" width="120" height="40" as="geometry" />
        </mxCell>
        <mxCell id="KhTm1GceVhpEBvx1IbzX-25" value="id" style="ellipse;whiteSpace=wrap;html=1;align=center;" parent="1" vertex="1">
          <mxGeometry x="1045" y="200" width="100" height="40" as="geometry" />
        </mxCell>
        <mxCell id="KhTm1GceVhpEBvx1IbzX-26" value="title" style="ellipse;whiteSpace=wrap;html=1;align=center;" parent="1" vertex="1">
          <mxGeometry x="1100" y="160" width="100" height="40" as="geometry" />
        </mxCell>
        <mxCell id="KhTm1GceVhpEBvx1IbzX-27" value="categoryId" style="ellipse;whiteSpace=wrap;html=1;align=center;" parent="1" vertex="1">
          <mxGeometry x="1290" y="126" width="100" height="40" as="geometry" />
        </mxCell>
        <mxCell id="KhTm1GceVhpEBvx1IbzX-28" value="price" style="ellipse;whiteSpace=wrap;html=1;align=center;" parent="1" vertex="1">
          <mxGeometry x="1390" y="228" width="100" height="40" as="geometry" />
        </mxCell>
        <mxCell id="KhTm1GceVhpEBvx1IbzX-29" value="description" style="ellipse;whiteSpace=wrap;html=1;align=center;" parent="1" vertex="1">
          <mxGeometry x="1360" y="168" width="100" height="40" as="geometry" />
        </mxCell>
        <mxCell id="KhTm1GceVhpEBvx1IbzX-30" value="stock" style="ellipse;whiteSpace=wrap;html=1;align=center;" parent="1" vertex="1">
          <mxGeometry x="1380" y="290" width="100" height="40" as="geometry" />
        </mxCell>
        <mxCell id="KhTm1GceVhpEBvx1IbzX-31" value="authorName" style="ellipse;whiteSpace=wrap;html=1;align=center;" parent="1" vertex="1">
          <mxGeometry x="1320" y="340" width="100" height="40" as="geometry" />
        </mxCell>
        <mxCell id="KhTm1GceVhpEBvx1IbzX-32" value="createdAt" style="ellipse;whiteSpace=wrap;html=1;align=center;" parent="1" vertex="1">
          <mxGeometry x="1045" y="290" width="100" height="40" as="geometry" />
        </mxCell>
        <mxCell id="KhTm1GceVhpEBvx1IbzX-33" value="updatedAt" style="ellipse;whiteSpace=wrap;html=1;align=center;" parent="1" vertex="1">
          <mxGeometry x="1112" y="330" width="100" height="40" as="geometry" />
        </mxCell>
        <mxCell id="KhTm1GceVhpEBvx1IbzX-34" value="" style="endArrow=none;html=1;rounded=0;exitX=1.002;exitY=0.419;exitDx=0;exitDy=0;entryX=0;entryY=1;entryDx=0;entryDy=0;exitPerimeter=0;" parent="1" source="KhTm1GceVhpEBvx1IbzX-32" target="KhTm1GceVhpEBvx1IbzX-24" edge="1">
          <mxGeometry relative="1" as="geometry">
            <mxPoint x="1152" y="316" as="sourcePoint" />
            <mxPoint x="1177" y="250" as="targetPoint" />
          </mxGeometry>
        </mxCell>
        <mxCell id="KhTm1GceVhpEBvx1IbzX-35" value="" style="endArrow=none;html=1;rounded=0;exitX=1;exitY=0.5;exitDx=0;exitDy=0;entryX=0;entryY=0;entryDx=0;entryDy=0;" parent="1" source="KhTm1GceVhpEBvx1IbzX-25" target="KhTm1GceVhpEBvx1IbzX-24" edge="1">
          <mxGeometry relative="1" as="geometry">
            <mxPoint x="1132" y="260" as="sourcePoint" />
            <mxPoint x="1232" y="300" as="targetPoint" />
          </mxGeometry>
        </mxCell>
        <mxCell id="KhTm1GceVhpEBvx1IbzX-36" value="" style="endArrow=none;html=1;rounded=0;exitX=1;exitY=0;exitDx=0;exitDy=0;entryX=0.25;entryY=1;entryDx=0;entryDy=0;" parent="1" source="KhTm1GceVhpEBvx1IbzX-33" target="KhTm1GceVhpEBvx1IbzX-24" edge="1">
          <mxGeometry relative="1" as="geometry">
            <mxPoint x="1227" y="386" as="sourcePoint" />
            <mxPoint x="1252" y="320" as="targetPoint" />
          </mxGeometry>
        </mxCell>
        <mxCell id="KhTm1GceVhpEBvx1IbzX-37" value="" style="endArrow=none;html=1;rounded=0;entryX=0.75;entryY=1;entryDx=0;entryDy=0;" parent="1" source="KhTm1GceVhpEBvx1IbzX-31" target="KhTm1GceVhpEBvx1IbzX-24" edge="1">
          <mxGeometry relative="1" as="geometry">
            <mxPoint x="1237" y="396" as="sourcePoint" />
            <mxPoint x="1262" y="330" as="targetPoint" />
          </mxGeometry>
        </mxCell>
        <mxCell id="KhTm1GceVhpEBvx1IbzX-38" value="" style="endArrow=none;html=1;rounded=0;exitX=0.75;exitY=0;exitDx=0;exitDy=0;" parent="1" source="KhTm1GceVhpEBvx1IbzX-24" target="KhTm1GceVhpEBvx1IbzX-27" edge="1">
          <mxGeometry relative="1" as="geometry">
            <mxPoint x="1366" y="357" as="sourcePoint" />
            <mxPoint x="1342" y="290" as="targetPoint" />
          </mxGeometry>
        </mxCell>
        <mxCell id="KhTm1GceVhpEBvx1IbzX-39" value="" style="endArrow=none;html=1;rounded=0;exitX=1;exitY=0;exitDx=0;exitDy=0;" parent="1" source="KhTm1GceVhpEBvx1IbzX-24" target="KhTm1GceVhpEBvx1IbzX-29" edge="1">
          <mxGeometry relative="1" as="geometry">
            <mxPoint x="1376" y="367" as="sourcePoint" />
            <mxPoint x="1352" y="300" as="targetPoint" />
          </mxGeometry>
        </mxCell>
        <mxCell id="KhTm1GceVhpEBvx1IbzX-40" value="" style="endArrow=none;html=1;rounded=0;exitX=1;exitY=0.5;exitDx=0;exitDy=0;entryX=0;entryY=1;entryDx=0;entryDy=0;" parent="1" source="KhTm1GceVhpEBvx1IbzX-24" target="KhTm1GceVhpEBvx1IbzX-28" edge="1">
          <mxGeometry relative="1" as="geometry">
            <mxPoint x="1386" y="377" as="sourcePoint" />
            <mxPoint x="1362" y="310" as="targetPoint" />
          </mxGeometry>
        </mxCell>
        <mxCell id="KhTm1GceVhpEBvx1IbzX-41" value="" style="endArrow=none;html=1;rounded=0;exitX=1;exitY=1;exitDx=0;exitDy=0;" parent="1" source="KhTm1GceVhpEBvx1IbzX-24" target="KhTm1GceVhpEBvx1IbzX-30" edge="1">
          <mxGeometry relative="1" as="geometry">
            <mxPoint x="1342" y="270" as="sourcePoint" />
            <mxPoint x="1397" y="234" as="targetPoint" />
          </mxGeometry>
        </mxCell>
        <mxCell id="KhTm1GceVhpEBvx1IbzX-42" value="" style="endArrow=none;html=1;rounded=0;entryX=0.25;entryY=0;entryDx=0;entryDy=0;" parent="1" source="KhTm1GceVhpEBvx1IbzX-26" target="KhTm1GceVhpEBvx1IbzX-24" edge="1">
          <mxGeometry relative="1" as="geometry">
            <mxPoint x="1142" y="270" as="sourcePoint" />
            <mxPoint x="1222" y="257" as="targetPoint" />
          </mxGeometry>
        </mxCell>
        <mxCell id="KhTm1GceVhpEBvx1IbzX-43" value="coverPageUrl" style="ellipse;whiteSpace=wrap;html=1;align=center;" parent="1" vertex="1">
          <mxGeometry x="1210" y="360" width="100" height="40" as="geometry" />
        </mxCell>
        <mxCell id="KhTm1GceVhpEBvx1IbzX-44" value="" style="endArrow=none;html=1;rounded=0;entryX=0.5;entryY=1;entryDx=0;entryDy=0;" parent="1" source="KhTm1GceVhpEBvx1IbzX-43" target="KhTm1GceVhpEBvx1IbzX-24" edge="1">
          <mxGeometry relative="1" as="geometry">
            <mxPoint x="1207" y="366" as="sourcePoint" />
            <mxPoint x="1282" y="290" as="targetPoint" />
            <Array as="points" />
          </mxGeometry>
        </mxCell>
        <mxCell id="KhTm1GceVhpEBvx1IbzX-68" value="User_addresses" style="whiteSpace=wrap;html=1;align=center;" parent="1" vertex="1">
          <mxGeometry x="1209" y="878" width="120" height="40" as="geometry" />
        </mxCell>
        <mxCell id="KhTm1GceVhpEBvx1IbzX-69" value="id" style="ellipse;whiteSpace=wrap;html=1;align=center;" parent="1" vertex="1">
          <mxGeometry x="1060" y="880" width="100" height="40" as="geometry" />
        </mxCell>
        <mxCell id="KhTm1GceVhpEBvx1IbzX-70" value="userId" style="ellipse;whiteSpace=wrap;html=1;align=center;" parent="1" vertex="1">
          <mxGeometry x="1060" y="830" width="100" height="40" as="geometry" />
        </mxCell>
        <mxCell id="KhTm1GceVhpEBvx1IbzX-71" value="addressLine" style="ellipse;whiteSpace=wrap;html=1;align=center;" parent="1" vertex="1">
          <mxGeometry x="1250" y="780" width="100" height="40" as="geometry" />
        </mxCell>
        <mxCell id="KhTm1GceVhpEBvx1IbzX-72" value="state" style="ellipse;whiteSpace=wrap;html=1;align=center;" parent="1" vertex="1">
          <mxGeometry x="1380" y="860" width="100" height="40" as="geometry" />
        </mxCell>
        <mxCell id="KhTm1GceVhpEBvx1IbzX-73" value="city" style="ellipse;whiteSpace=wrap;html=1;align=center;" parent="1" vertex="1">
          <mxGeometry x="1345" y="808" width="100" height="40" as="geometry" />
        </mxCell>
        <mxCell id="KhTm1GceVhpEBvx1IbzX-74" value="zipCode" style="ellipse;whiteSpace=wrap;html=1;align=center;" parent="1" vertex="1">
          <mxGeometry x="1390" y="920" width="100" height="40" as="geometry" />
        </mxCell>
        <mxCell id="KhTm1GceVhpEBvx1IbzX-75" value="country" style="ellipse;whiteSpace=wrap;html=1;align=center;" parent="1" vertex="1">
          <mxGeometry x="1290" y="968" width="100" height="40" as="geometry" />
        </mxCell>
        <mxCell id="KhTm1GceVhpEBvx1IbzX-76" value="createdAt" style="ellipse;whiteSpace=wrap;html=1;align=center;" parent="1" vertex="1">
          <mxGeometry x="1069" y="928" width="100" height="40" as="geometry" />
        </mxCell>
        <mxCell id="KhTm1GceVhpEBvx1IbzX-77" value="updatedAt" style="ellipse;whiteSpace=wrap;html=1;align=center;" parent="1" vertex="1">
          <mxGeometry x="1150" y="968" width="100" height="40" as="geometry" />
        </mxCell>
        <mxCell id="KhTm1GceVhpEBvx1IbzX-78" value="" style="endArrow=none;html=1;rounded=0;exitX=1.002;exitY=0.419;exitDx=0;exitDy=0;entryX=0;entryY=1;entryDx=0;entryDy=0;exitPerimeter=0;" parent="1" source="KhTm1GceVhpEBvx1IbzX-76" target="KhTm1GceVhpEBvx1IbzX-68" edge="1">
          <mxGeometry relative="1" as="geometry">
            <mxPoint x="1169" y="954" as="sourcePoint" />
            <mxPoint x="1194" y="888" as="targetPoint" />
          </mxGeometry>
        </mxCell>
        <mxCell id="KhTm1GceVhpEBvx1IbzX-79" value="" style="endArrow=none;html=1;rounded=0;exitX=1;exitY=0.5;exitDx=0;exitDy=0;entryX=0;entryY=0.5;entryDx=0;entryDy=0;" parent="1" source="KhTm1GceVhpEBvx1IbzX-69" target="KhTm1GceVhpEBvx1IbzX-68" edge="1">
          <mxGeometry relative="1" as="geometry">
            <mxPoint x="1224" y="1004" as="sourcePoint" />
            <mxPoint x="1249" y="938" as="targetPoint" />
          </mxGeometry>
        </mxCell>
        <mxCell id="KhTm1GceVhpEBvx1IbzX-80" value="" style="endArrow=none;html=1;rounded=0;" parent="1" source="KhTm1GceVhpEBvx1IbzX-77" target="KhTm1GceVhpEBvx1IbzX-68" edge="1">
          <mxGeometry relative="1" as="geometry">
            <mxPoint x="1244" y="1024" as="sourcePoint" />
            <mxPoint x="1269" y="958" as="targetPoint" />
          </mxGeometry>
        </mxCell>
        <mxCell id="KhTm1GceVhpEBvx1IbzX-81" value="" style="endArrow=none;html=1;rounded=0;entryX=0.75;entryY=1;entryDx=0;entryDy=0;" parent="1" source="KhTm1GceVhpEBvx1IbzX-75" target="KhTm1GceVhpEBvx1IbzX-68" edge="1">
          <mxGeometry relative="1" as="geometry">
            <mxPoint x="1254" y="1034" as="sourcePoint" />
            <mxPoint x="1279" y="968" as="targetPoint" />
          </mxGeometry>
        </mxCell>
        <mxCell id="KhTm1GceVhpEBvx1IbzX-82" value="" style="endArrow=none;html=1;rounded=0;exitX=0.75;exitY=0;exitDx=0;exitDy=0;" parent="1" source="KhTm1GceVhpEBvx1IbzX-68" target="KhTm1GceVhpEBvx1IbzX-71" edge="1">
          <mxGeometry relative="1" as="geometry">
            <mxPoint x="1383" y="995" as="sourcePoint" />
            <mxPoint x="1359" y="928" as="targetPoint" />
          </mxGeometry>
        </mxCell>
        <mxCell id="KhTm1GceVhpEBvx1IbzX-83" value="" style="endArrow=none;html=1;rounded=0;exitX=1;exitY=0;exitDx=0;exitDy=0;" parent="1" source="KhTm1GceVhpEBvx1IbzX-68" target="KhTm1GceVhpEBvx1IbzX-73" edge="1">
          <mxGeometry relative="1" as="geometry">
            <mxPoint x="1393" y="1005" as="sourcePoint" />
            <mxPoint x="1369" y="938" as="targetPoint" />
          </mxGeometry>
        </mxCell>
        <mxCell id="KhTm1GceVhpEBvx1IbzX-84" value="" style="endArrow=none;html=1;rounded=0;exitX=1;exitY=0.25;exitDx=0;exitDy=0;entryX=-0.001;entryY=0.577;entryDx=0;entryDy=0;entryPerimeter=0;" parent="1" source="KhTm1GceVhpEBvx1IbzX-68" target="KhTm1GceVhpEBvx1IbzX-72" edge="1">
          <mxGeometry relative="1" as="geometry">
            <mxPoint x="1403" y="1015" as="sourcePoint" />
            <mxPoint x="1379" y="948" as="targetPoint" />
          </mxGeometry>
        </mxCell>
        <mxCell id="KhTm1GceVhpEBvx1IbzX-85" value="" style="endArrow=none;html=1;rounded=0;exitX=1;exitY=0.75;exitDx=0;exitDy=0;" parent="1" source="KhTm1GceVhpEBvx1IbzX-68" target="KhTm1GceVhpEBvx1IbzX-74" edge="1">
          <mxGeometry relative="1" as="geometry">
            <mxPoint x="1359" y="908" as="sourcePoint" />
            <mxPoint x="1414" y="872" as="targetPoint" />
          </mxGeometry>
        </mxCell>
        <mxCell id="KhTm1GceVhpEBvx1IbzX-86" value="" style="endArrow=none;html=1;rounded=0;entryX=0;entryY=0;entryDx=0;entryDy=0;" parent="1" source="KhTm1GceVhpEBvx1IbzX-70" target="KhTm1GceVhpEBvx1IbzX-68" edge="1">
          <mxGeometry relative="1" as="geometry">
            <mxPoint x="1159" y="908" as="sourcePoint" />
            <mxPoint x="1239" y="895" as="targetPoint" />
          </mxGeometry>
        </mxCell>
        <mxCell id="KhTm1GceVhpEBvx1IbzX-87" value="Reviews" style="whiteSpace=wrap;html=1;align=center;" parent="1" vertex="1">
          <mxGeometry x="682" y="-40" width="120" height="40" as="geometry" />
        </mxCell>
        <mxCell id="KhTm1GceVhpEBvx1IbzX-88" value="id" style="ellipse;whiteSpace=wrap;html=1;align=center;" parent="1" vertex="1">
          <mxGeometry x="520" y="-40" width="100" height="40" as="geometry" />
        </mxCell>
        <mxCell id="KhTm1GceVhpEBvx1IbzX-89" value="userId" style="ellipse;whiteSpace=wrap;html=1;align=center;" parent="1" vertex="1">
          <mxGeometry x="570" y="-110" width="100" height="40" as="geometry" />
        </mxCell>
        <mxCell id="KhTm1GceVhpEBvx1IbzX-90" value="bookId" style="ellipse;whiteSpace=wrap;html=1;align=center;" parent="1" vertex="1">
          <mxGeometry x="692" y="-130" width="100" height="40" as="geometry" />
        </mxCell>
        <mxCell id="KhTm1GceVhpEBvx1IbzX-91" value="comment" style="ellipse;whiteSpace=wrap;html=1;align=center;" parent="1" vertex="1">
          <mxGeometry x="870" y="-42" width="100" height="40" as="geometry" />
        </mxCell>
        <mxCell id="KhTm1GceVhpEBvx1IbzX-92" value="rating" style="ellipse;whiteSpace=wrap;html=1;align=center;" parent="1" vertex="1">
          <mxGeometry x="832" y="-110" width="100" height="40" as="geometry" />
        </mxCell>
        <mxCell id="KhTm1GceVhpEBvx1IbzX-93" value="createdAt" style="ellipse;whiteSpace=wrap;html=1;align=center;" parent="1" vertex="1">
          <mxGeometry x="560" y="20" width="100" height="40" as="geometry" />
        </mxCell>
        <mxCell id="KhTm1GceVhpEBvx1IbzX-94" value="updatedAt" style="ellipse;whiteSpace=wrap;html=1;align=center;" parent="1" vertex="1">
          <mxGeometry x="820" y="20" width="100" height="40" as="geometry" />
        </mxCell>
        <mxCell id="KhTm1GceVhpEBvx1IbzX-95" value="" style="endArrow=none;html=1;rounded=0;exitX=0.899;exitY=0.19;exitDx=0;exitDy=0;entryX=0;entryY=1;entryDx=0;entryDy=0;exitPerimeter=0;" parent="1" source="KhTm1GceVhpEBvx1IbzX-93" target="KhTm1GceVhpEBvx1IbzX-87" edge="1">
          <mxGeometry relative="1" as="geometry">
            <mxPoint x="640" y="36" as="sourcePoint" />
            <mxPoint x="665" y="-30" as="targetPoint" />
          </mxGeometry>
        </mxCell>
        <mxCell id="KhTm1GceVhpEBvx1IbzX-96" value="" style="endArrow=none;html=1;rounded=0;exitX=1;exitY=0.5;exitDx=0;exitDy=0;entryX=0;entryY=0.5;entryDx=0;entryDy=0;" parent="1" source="KhTm1GceVhpEBvx1IbzX-88" target="KhTm1GceVhpEBvx1IbzX-87" edge="1">
          <mxGeometry relative="1" as="geometry">
            <mxPoint x="695" y="86" as="sourcePoint" />
            <mxPoint x="720" y="20" as="targetPoint" />
          </mxGeometry>
        </mxCell>
        <mxCell id="KhTm1GceVhpEBvx1IbzX-97" value="" style="endArrow=none;html=1;rounded=0;entryX=1;entryY=1;entryDx=0;entryDy=0;" parent="1" source="KhTm1GceVhpEBvx1IbzX-94" target="KhTm1GceVhpEBvx1IbzX-87" edge="1">
          <mxGeometry relative="1" as="geometry">
            <mxPoint x="715" y="106" as="sourcePoint" />
            <mxPoint x="740" y="40" as="targetPoint" />
          </mxGeometry>
        </mxCell>
        <mxCell id="KhTm1GceVhpEBvx1IbzX-98" value="" style="endArrow=none;html=1;rounded=0;exitX=0.5;exitY=0;exitDx=0;exitDy=0;" parent="1" source="KhTm1GceVhpEBvx1IbzX-87" target="KhTm1GceVhpEBvx1IbzX-90" edge="1">
          <mxGeometry relative="1" as="geometry">
            <mxPoint x="854" y="77" as="sourcePoint" />
            <mxPoint x="830" y="10" as="targetPoint" />
          </mxGeometry>
        </mxCell>
        <mxCell id="KhTm1GceVhpEBvx1IbzX-99" value="" style="endArrow=none;html=1;rounded=0;exitX=0.75;exitY=0;exitDx=0;exitDy=0;" parent="1" source="KhTm1GceVhpEBvx1IbzX-87" target="KhTm1GceVhpEBvx1IbzX-92" edge="1">
          <mxGeometry relative="1" as="geometry">
            <mxPoint x="864" y="87" as="sourcePoint" />
            <mxPoint x="840" y="20" as="targetPoint" />
          </mxGeometry>
        </mxCell>
        <mxCell id="KhTm1GceVhpEBvx1IbzX-100" value="" style="endArrow=none;html=1;rounded=0;exitX=1;exitY=0.5;exitDx=0;exitDy=0;entryX=0;entryY=0.5;entryDx=0;entryDy=0;" parent="1" source="KhTm1GceVhpEBvx1IbzX-87" target="KhTm1GceVhpEBvx1IbzX-91" edge="1">
          <mxGeometry relative="1" as="geometry">
            <mxPoint x="874" y="97" as="sourcePoint" />
            <mxPoint x="850" y="30" as="targetPoint" />
          </mxGeometry>
        </mxCell>
        <mxCell id="KhTm1GceVhpEBvx1IbzX-101" value="" style="endArrow=none;html=1;rounded=0;entryX=0;entryY=0;entryDx=0;entryDy=0;" parent="1" source="KhTm1GceVhpEBvx1IbzX-89" target="KhTm1GceVhpEBvx1IbzX-87" edge="1">
          <mxGeometry relative="1" as="geometry">
            <mxPoint x="630" y="-10" as="sourcePoint" />
            <mxPoint x="710" y="-23" as="targetPoint" />
          </mxGeometry>
        </mxCell>
        <mxCell id="KhTm1GceVhpEBvx1IbzX-102" value="Categories" style="whiteSpace=wrap;html=1;align=center;" parent="1" vertex="1">
          <mxGeometry x="1210" y="-40" width="120" height="40" as="geometry" />
        </mxCell>
        <mxCell id="KhTm1GceVhpEBvx1IbzX-103" value="id" style="ellipse;whiteSpace=wrap;html=1;align=center;" parent="1" vertex="1">
          <mxGeometry x="1090" y="-90" width="100" height="40" as="geometry" />
        </mxCell>
        <mxCell id="KhTm1GceVhpEBvx1IbzX-104" value="name" style="ellipse;whiteSpace=wrap;html=1;align=center;" parent="1" vertex="1">
          <mxGeometry x="1350" y="-110" width="100" height="40" as="geometry" />
        </mxCell>
        <mxCell id="KhTm1GceVhpEBvx1IbzX-105" value="createdAt" style="ellipse;whiteSpace=wrap;html=1;align=center;" parent="1" vertex="1">
          <mxGeometry x="1090" y="8" width="100" height="40" as="geometry" />
        </mxCell>
        <mxCell id="KhTm1GceVhpEBvx1IbzX-106" value="updatedAt" style="ellipse;whiteSpace=wrap;html=1;align=center;" parent="1" vertex="1">
          <mxGeometry x="1350" y="30" width="100" height="40" as="geometry" />
        </mxCell>
        <mxCell id="KhTm1GceVhpEBvx1IbzX-107" value="" style="endArrow=none;html=1;rounded=0;exitX=1;exitY=0.5;exitDx=0;exitDy=0;entryX=0;entryY=1;entryDx=0;entryDy=0;" parent="1" source="KhTm1GceVhpEBvx1IbzX-105" target="KhTm1GceVhpEBvx1IbzX-102" edge="1">
          <mxGeometry relative="1" as="geometry">
            <mxPoint x="1150" y="36" as="sourcePoint" />
            <mxPoint x="1175" y="-30" as="targetPoint" />
          </mxGeometry>
        </mxCell>
        <mxCell id="KhTm1GceVhpEBvx1IbzX-108" value="" style="endArrow=none;html=1;rounded=0;exitX=1;exitY=0.5;exitDx=0;exitDy=0;entryX=0;entryY=0;entryDx=0;entryDy=0;" parent="1" source="KhTm1GceVhpEBvx1IbzX-103" target="KhTm1GceVhpEBvx1IbzX-102" edge="1">
          <mxGeometry relative="1" as="geometry">
            <mxPoint x="1205" y="86" as="sourcePoint" />
            <mxPoint x="1230" y="20" as="targetPoint" />
          </mxGeometry>
        </mxCell>
        <mxCell id="KhTm1GceVhpEBvx1IbzX-109" value="" style="endArrow=none;html=1;rounded=0;entryX=1;entryY=1;entryDx=0;entryDy=0;exitX=0;exitY=0.5;exitDx=0;exitDy=0;" parent="1" source="KhTm1GceVhpEBvx1IbzX-106" target="KhTm1GceVhpEBvx1IbzX-102" edge="1">
          <mxGeometry relative="1" as="geometry">
            <mxPoint x="1225" y="106" as="sourcePoint" />
            <mxPoint x="1250" y="40" as="targetPoint" />
          </mxGeometry>
        </mxCell>
        <mxCell id="KhTm1GceVhpEBvx1IbzX-110" value="" style="endArrow=none;html=1;rounded=0;exitX=1;exitY=0;exitDx=0;exitDy=0;entryX=0;entryY=0.5;entryDx=0;entryDy=0;" parent="1" source="KhTm1GceVhpEBvx1IbzX-102" target="KhTm1GceVhpEBvx1IbzX-104" edge="1">
          <mxGeometry relative="1" as="geometry">
            <mxPoint x="1384" y="97" as="sourcePoint" />
            <mxPoint x="1360" y="30" as="targetPoint" />
          </mxGeometry>
        </mxCell>
        <mxCell id="KhTm1GceVhpEBvx1IbzX-111" value="Payments" style="whiteSpace=wrap;html=1;align=center;" parent="1" vertex="1">
          <mxGeometry x="1212" y="600" width="120" height="40" as="geometry" />
        </mxCell>
        <mxCell id="KhTm1GceVhpEBvx1IbzX-112" value="id" style="ellipse;whiteSpace=wrap;html=1;align=center;" parent="1" vertex="1">
          <mxGeometry x="1050" y="560" width="100" height="40" as="geometry" />
        </mxCell>
        <mxCell id="KhTm1GceVhpEBvx1IbzX-113" value="orderId" style="ellipse;whiteSpace=wrap;html=1;align=center;" parent="1" vertex="1">
          <mxGeometry x="1150" y="500" width="100" height="40" as="geometry" />
        </mxCell>
        <mxCell id="KhTm1GceVhpEBvx1IbzX-115" value="paymentMethod" style="ellipse;whiteSpace=wrap;html=1;align=center;" parent="1" vertex="1">
          <mxGeometry x="1390" y="570" width="100" height="40" as="geometry" />
        </mxCell>
        <mxCell id="KhTm1GceVhpEBvx1IbzX-116" value="amount" style="ellipse;whiteSpace=wrap;html=1;align=center;" parent="1" vertex="1">
          <mxGeometry x="1320" y="510" width="100" height="40" as="geometry" />
        </mxCell>
        <mxCell id="KhTm1GceVhpEBvx1IbzX-117" value="paymentStatus" style="ellipse;whiteSpace=wrap;html=1;align=center;" parent="1" vertex="1">
          <mxGeometry x="1390" y="638" width="100" height="40" as="geometry" />
        </mxCell>
        <mxCell id="KhTm1GceVhpEBvx1IbzX-118" value="createdAt" style="ellipse;whiteSpace=wrap;html=1;align=center;" parent="1" vertex="1">
          <mxGeometry x="1040" y="638" width="100" height="40" as="geometry" />
        </mxCell>
        <mxCell id="KhTm1GceVhpEBvx1IbzX-119" value="updatedAt" style="ellipse;whiteSpace=wrap;html=1;align=center;" parent="1" vertex="1">
          <mxGeometry x="1160" y="690" width="100" height="40" as="geometry" />
        </mxCell>
        <mxCell id="KhTm1GceVhpEBvx1IbzX-120" value="" style="endArrow=none;html=1;rounded=0;exitX=1.002;exitY=0.419;exitDx=0;exitDy=0;entryX=0;entryY=1;entryDx=0;entryDy=0;exitPerimeter=0;" parent="1" source="KhTm1GceVhpEBvx1IbzX-118" target="KhTm1GceVhpEBvx1IbzX-111" edge="1">
          <mxGeometry relative="1" as="geometry">
            <mxPoint x="1152" y="676" as="sourcePoint" />
            <mxPoint x="1177" y="610" as="targetPoint" />
          </mxGeometry>
        </mxCell>
        <mxCell id="KhTm1GceVhpEBvx1IbzX-121" value="" style="endArrow=none;html=1;rounded=0;exitX=1;exitY=0.5;exitDx=0;exitDy=0;entryX=0;entryY=0;entryDx=0;entryDy=0;" parent="1" source="KhTm1GceVhpEBvx1IbzX-112" target="KhTm1GceVhpEBvx1IbzX-111" edge="1">
          <mxGeometry relative="1" as="geometry">
            <mxPoint x="1132" y="620" as="sourcePoint" />
            <mxPoint x="1232" y="660" as="targetPoint" />
          </mxGeometry>
        </mxCell>
        <mxCell id="KhTm1GceVhpEBvx1IbzX-122" value="" style="endArrow=none;html=1;rounded=0;exitX=0.5;exitY=0;exitDx=0;exitDy=0;entryX=0.25;entryY=1;entryDx=0;entryDy=0;" parent="1" source="KhTm1GceVhpEBvx1IbzX-119" target="KhTm1GceVhpEBvx1IbzX-111" edge="1">
          <mxGeometry relative="1" as="geometry">
            <mxPoint x="1227" y="746" as="sourcePoint" />
            <mxPoint x="1252" y="680" as="targetPoint" />
          </mxGeometry>
        </mxCell>
        <mxCell id="KhTm1GceVhpEBvx1IbzX-124" value="" style="endArrow=none;html=1;rounded=0;exitX=0.901;exitY=0.022;exitDx=0;exitDy=0;exitPerimeter=0;entryX=0.5;entryY=1;entryDx=0;entryDy=0;" parent="1" source="KhTm1GceVhpEBvx1IbzX-111" target="KhTm1GceVhpEBvx1IbzX-116" edge="1">
          <mxGeometry relative="1" as="geometry">
            <mxPoint x="1376" y="727" as="sourcePoint" />
            <mxPoint x="1352" y="660" as="targetPoint" />
          </mxGeometry>
        </mxCell>
        <mxCell id="KhTm1GceVhpEBvx1IbzX-125" value="" style="endArrow=none;html=1;rounded=0;exitX=1;exitY=0.25;exitDx=0;exitDy=0;entryX=0;entryY=0.5;entryDx=0;entryDy=0;" parent="1" source="KhTm1GceVhpEBvx1IbzX-111" target="KhTm1GceVhpEBvx1IbzX-115" edge="1">
          <mxGeometry relative="1" as="geometry">
            <mxPoint x="1386" y="737" as="sourcePoint" />
            <mxPoint x="1362" y="670" as="targetPoint" />
          </mxGeometry>
        </mxCell>
        <mxCell id="KhTm1GceVhpEBvx1IbzX-126" value="" style="endArrow=none;html=1;rounded=0;exitX=1;exitY=1;exitDx=0;exitDy=0;entryX=0;entryY=0.5;entryDx=0;entryDy=0;" parent="1" source="KhTm1GceVhpEBvx1IbzX-111" target="KhTm1GceVhpEBvx1IbzX-117" edge="1">
          <mxGeometry relative="1" as="geometry">
            <mxPoint x="1342" y="630" as="sourcePoint" />
            <mxPoint x="1397" y="594" as="targetPoint" />
          </mxGeometry>
        </mxCell>
        <mxCell id="KhTm1GceVhpEBvx1IbzX-127" value="" style="endArrow=none;html=1;rounded=0;entryX=0.25;entryY=0;entryDx=0;entryDy=0;" parent="1" source="KhTm1GceVhpEBvx1IbzX-113" target="KhTm1GceVhpEBvx1IbzX-111" edge="1">
          <mxGeometry relative="1" as="geometry">
            <mxPoint x="1142" y="630" as="sourcePoint" />
            <mxPoint x="1222" y="617" as="targetPoint" />
          </mxGeometry>
        </mxCell>
        <mxCell id="KhTm1GceVhpEBvx1IbzX-128" value="transactionId" style="ellipse;whiteSpace=wrap;html=1;align=center;" parent="1" vertex="1">
          <mxGeometry x="1295" y="688" width="100" height="40" as="geometry" />
        </mxCell>
        <mxCell id="KhTm1GceVhpEBvx1IbzX-129" value="" style="endArrow=none;html=1;rounded=0;entryX=0.75;entryY=1;entryDx=0;entryDy=0;" parent="1" source="KhTm1GceVhpEBvx1IbzX-128" target="KhTm1GceVhpEBvx1IbzX-111" edge="1">
          <mxGeometry relative="1" as="geometry">
            <mxPoint x="1207" y="726" as="sourcePoint" />
            <mxPoint x="1282" y="650" as="targetPoint" />
          </mxGeometry>
        </mxCell>
        <mxCell id="KhTm1GceVhpEBvx1IbzX-130" value="Orders" style="whiteSpace=wrap;html=1;align=center;" parent="1" vertex="1">
          <mxGeometry x="672" y="600" width="120" height="40" as="geometry" />
        </mxCell>
        <mxCell id="KhTm1GceVhpEBvx1IbzX-131" value="id" style="ellipse;whiteSpace=wrap;html=1;align=center;" parent="1" vertex="1">
          <mxGeometry x="470" y="560" width="100" height="40" as="geometry" />
        </mxCell>
        <mxCell id="KhTm1GceVhpEBvx1IbzX-132" value="userId" style="ellipse;whiteSpace=wrap;html=1;align=center;" parent="1" vertex="1">
          <mxGeometry x="530" y="520" width="100" height="40" as="geometry" />
        </mxCell>
        <mxCell id="KhTm1GceVhpEBvx1IbzX-133" value="address_id" style="ellipse;whiteSpace=wrap;html=1;align=center;" parent="1" vertex="1">
          <mxGeometry x="620" y="490" width="100" height="40" as="geometry" />
        </mxCell>
        <mxCell id="KhTm1GceVhpEBvx1IbzX-134" value="orderMethod" style="ellipse;whiteSpace=wrap;html=1;align=center;" parent="1" vertex="1">
          <mxGeometry x="832" y="550" width="100" height="40" as="geometry" />
        </mxCell>
        <mxCell id="KhTm1GceVhpEBvx1IbzX-135" value="deliveredDate" style="ellipse;whiteSpace=wrap;html=1;align=center;" parent="1" vertex="1">
          <mxGeometry x="750" y="510" width="100" height="40" as="geometry" />
        </mxCell>
        <mxCell id="KhTm1GceVhpEBvx1IbzX-136" value="orderStatus" style="ellipse;whiteSpace=wrap;html=1;align=center;" parent="1" vertex="1">
          <mxGeometry x="832" y="650" width="100" height="40" as="geometry" />
        </mxCell>
        <mxCell id="KhTm1GceVhpEBvx1IbzX-137" value="createdAt" style="ellipse;whiteSpace=wrap;html=1;align=center;" parent="1" vertex="1">
          <mxGeometry x="485" y="650" width="100" height="40" as="geometry" />
        </mxCell>
        <mxCell id="KhTm1GceVhpEBvx1IbzX-138" value="updatedAt" style="ellipse;whiteSpace=wrap;html=1;align=center;" parent="1" vertex="1">
          <mxGeometry x="572" y="700" width="100" height="40" as="geometry" />
        </mxCell>
        <mxCell id="KhTm1GceVhpEBvx1IbzX-139" value="" style="endArrow=none;html=1;rounded=0;exitX=1.002;exitY=0.419;exitDx=0;exitDy=0;entryX=0;entryY=1;entryDx=0;entryDy=0;exitPerimeter=0;" parent="1" source="KhTm1GceVhpEBvx1IbzX-137" target="KhTm1GceVhpEBvx1IbzX-130" edge="1">
          <mxGeometry relative="1" as="geometry">
            <mxPoint x="612" y="676" as="sourcePoint" />
            <mxPoint x="637" y="610" as="targetPoint" />
          </mxGeometry>
        </mxCell>
        <mxCell id="KhTm1GceVhpEBvx1IbzX-140" value="" style="endArrow=none;html=1;rounded=0;exitX=1;exitY=0.5;exitDx=0;exitDy=0;entryX=0;entryY=0.25;entryDx=0;entryDy=0;" parent="1" source="KhTm1GceVhpEBvx1IbzX-131" target="KhTm1GceVhpEBvx1IbzX-130" edge="1">
          <mxGeometry relative="1" as="geometry">
            <mxPoint x="579.9999999999995" y="620" as="sourcePoint" />
            <mxPoint x="692" y="660" as="targetPoint" />
          </mxGeometry>
        </mxCell>
        <mxCell id="KhTm1GceVhpEBvx1IbzX-141" value="" style="endArrow=none;html=1;rounded=0;exitX=1;exitY=0;exitDx=0;exitDy=0;entryX=0.25;entryY=1;entryDx=0;entryDy=0;" parent="1" source="KhTm1GceVhpEBvx1IbzX-138" target="KhTm1GceVhpEBvx1IbzX-130" edge="1">
          <mxGeometry relative="1" as="geometry">
            <mxPoint x="687" y="746" as="sourcePoint" />
            <mxPoint x="712" y="680" as="targetPoint" />
          </mxGeometry>
        </mxCell>
        <mxCell id="KhTm1GceVhpEBvx1IbzX-142" value="" style="endArrow=none;html=1;rounded=0;exitX=0.314;exitY=0.009;exitDx=0;exitDy=0;exitPerimeter=0;" parent="1" source="KhTm1GceVhpEBvx1IbzX-130" target="KhTm1GceVhpEBvx1IbzX-133" edge="1">
          <mxGeometry relative="1" as="geometry">
            <mxPoint x="826" y="717" as="sourcePoint" />
            <mxPoint x="802" y="650" as="targetPoint" />
          </mxGeometry>
        </mxCell>
        <mxCell id="KhTm1GceVhpEBvx1IbzX-143" value="" style="endArrow=none;html=1;rounded=0;exitX=0.75;exitY=0;exitDx=0;exitDy=0;" parent="1" source="KhTm1GceVhpEBvx1IbzX-130" target="KhTm1GceVhpEBvx1IbzX-135" edge="1">
          <mxGeometry relative="1" as="geometry">
            <mxPoint x="836" y="727" as="sourcePoint" />
            <mxPoint x="812" y="660" as="targetPoint" />
          </mxGeometry>
        </mxCell>
        <mxCell id="KhTm1GceVhpEBvx1IbzX-144" value="" style="endArrow=none;html=1;rounded=0;exitX=1;exitY=0;exitDx=0;exitDy=0;entryX=0;entryY=1;entryDx=0;entryDy=0;" parent="1" source="KhTm1GceVhpEBvx1IbzX-130" target="KhTm1GceVhpEBvx1IbzX-134" edge="1">
          <mxGeometry relative="1" as="geometry">
            <mxPoint x="846" y="737" as="sourcePoint" />
            <mxPoint x="822" y="670" as="targetPoint" />
          </mxGeometry>
        </mxCell>
        <mxCell id="KhTm1GceVhpEBvx1IbzX-145" value="" style="endArrow=none;html=1;rounded=0;exitX=1;exitY=1;exitDx=0;exitDy=0;" parent="1" source="KhTm1GceVhpEBvx1IbzX-130" target="KhTm1GceVhpEBvx1IbzX-136" edge="1">
          <mxGeometry relative="1" as="geometry">
            <mxPoint x="802" y="630" as="sourcePoint" />
            <mxPoint x="857" y="594" as="targetPoint" />
          </mxGeometry>
        </mxCell>
        <mxCell id="KhTm1GceVhpEBvx1IbzX-146" value="" style="endArrow=none;html=1;rounded=0;entryX=0.108;entryY=0;entryDx=0;entryDy=0;entryPerimeter=0;" parent="1" source="KhTm1GceVhpEBvx1IbzX-132" target="KhTm1GceVhpEBvx1IbzX-130" edge="1">
          <mxGeometry relative="1" as="geometry">
            <mxPoint x="602" y="630" as="sourcePoint" />
            <mxPoint x="682" y="617" as="targetPoint" />
          </mxGeometry>
        </mxCell>
        <mxCell id="KhTm1GceVhpEBvx1IbzX-147" value="totalAmount" style="ellipse;whiteSpace=wrap;html=1;align=center;" parent="1" vertex="1">
          <mxGeometry x="750" y="700" width="100" height="40" as="geometry" />
        </mxCell>
        <mxCell id="KhTm1GceVhpEBvx1IbzX-148" value="" style="endArrow=none;html=1;rounded=0;entryX=0.75;entryY=1;entryDx=0;entryDy=0;" parent="1" source="KhTm1GceVhpEBvx1IbzX-147" target="KhTm1GceVhpEBvx1IbzX-130" edge="1">
          <mxGeometry relative="1" as="geometry">
            <mxPoint x="667" y="726" as="sourcePoint" />
            <mxPoint x="742" y="650" as="targetPoint" />
          </mxGeometry>
        </mxCell>
        <mxCell id="KhTm1GceVhpEBvx1IbzX-149" value="Carts" style="whiteSpace=wrap;html=1;align=center;" parent="1" vertex="1">
          <mxGeometry x="120" y="600" width="120" height="40" as="geometry" />
        </mxCell>
        <mxCell id="KhTm1GceVhpEBvx1IbzX-150" value="id" style="ellipse;whiteSpace=wrap;html=1;align=center;" parent="1" vertex="1">
          <mxGeometry x="-20" y="550" width="100" height="40" as="geometry" />
        </mxCell>
        <mxCell id="KhTm1GceVhpEBvx1IbzX-151" value="userId" style="ellipse;whiteSpace=wrap;html=1;align=center;" parent="1" vertex="1">
          <mxGeometry x="280" y="550" width="100" height="40" as="geometry" />
        </mxCell>
        <mxCell id="KhTm1GceVhpEBvx1IbzX-152" value="createdAt" style="ellipse;whiteSpace=wrap;html=1;align=center;" parent="1" vertex="1">
          <mxGeometry x="-20" y="650" width="100" height="40" as="geometry" />
        </mxCell>
        <mxCell id="KhTm1GceVhpEBvx1IbzX-153" value="updatedAt" style="ellipse;whiteSpace=wrap;html=1;align=center;" parent="1" vertex="1">
          <mxGeometry x="280" y="650" width="100" height="40" as="geometry" />
        </mxCell>
        <mxCell id="KhTm1GceVhpEBvx1IbzX-154" value="" style="endArrow=none;html=1;rounded=0;exitX=1.002;exitY=0.419;exitDx=0;exitDy=0;entryX=0;entryY=1;entryDx=0;entryDy=0;exitPerimeter=0;" parent="1" source="KhTm1GceVhpEBvx1IbzX-152" target="KhTm1GceVhpEBvx1IbzX-149" edge="1">
          <mxGeometry relative="1" as="geometry">
            <mxPoint x="60" y="676" as="sourcePoint" />
            <mxPoint x="85" y="610" as="targetPoint" />
          </mxGeometry>
        </mxCell>
        <mxCell id="KhTm1GceVhpEBvx1IbzX-155" value="" style="endArrow=none;html=1;rounded=0;exitX=1;exitY=0.5;exitDx=0;exitDy=0;entryX=0;entryY=0;entryDx=0;entryDy=0;" parent="1" source="KhTm1GceVhpEBvx1IbzX-150" target="KhTm1GceVhpEBvx1IbzX-149" edge="1">
          <mxGeometry relative="1" as="geometry">
            <mxPoint x="115" y="726" as="sourcePoint" />
            <mxPoint x="140" y="660" as="targetPoint" />
          </mxGeometry>
        </mxCell>
        <mxCell id="KhTm1GceVhpEBvx1IbzX-156" value="" style="endArrow=none;html=1;rounded=0;entryX=1;entryY=1;entryDx=0;entryDy=0;exitX=0;exitY=0.5;exitDx=0;exitDy=0;" parent="1" source="KhTm1GceVhpEBvx1IbzX-153" target="KhTm1GceVhpEBvx1IbzX-149" edge="1">
          <mxGeometry relative="1" as="geometry">
            <mxPoint x="135" y="746" as="sourcePoint" />
            <mxPoint x="160" y="680" as="targetPoint" />
          </mxGeometry>
        </mxCell>
        <mxCell id="KhTm1GceVhpEBvx1IbzX-157" value="" style="endArrow=none;html=1;rounded=0;exitX=1;exitY=0;exitDx=0;exitDy=0;entryX=0;entryY=0.5;entryDx=0;entryDy=0;" parent="1" source="KhTm1GceVhpEBvx1IbzX-149" target="KhTm1GceVhpEBvx1IbzX-151" edge="1">
          <mxGeometry relative="1" as="geometry">
            <mxPoint x="294" y="737" as="sourcePoint" />
            <mxPoint x="270" y="670" as="targetPoint" />
          </mxGeometry>
        </mxCell>
        <mxCell id="KhTm1GceVhpEBvx1IbzX-158" value="Cart_books" style="whiteSpace=wrap;html=1;align=center;" parent="1" vertex="1">
          <mxGeometry x="120" y="880" width="120" height="40" as="geometry" />
        </mxCell>
        <mxCell id="KhTm1GceVhpEBvx1IbzX-159" value="id" style="ellipse;whiteSpace=wrap;html=1;align=center;" parent="1" vertex="1">
          <mxGeometry x="-60" y="880" width="100" height="40" as="geometry" />
        </mxCell>
        <mxCell id="KhTm1GceVhpEBvx1IbzX-160" value="cartId" style="ellipse;whiteSpace=wrap;html=1;align=center;" parent="1" vertex="1">
          <mxGeometry x="9" y="820" width="100" height="40" as="geometry" />
        </mxCell>
        <mxCell id="KhTm1GceVhpEBvx1IbzX-161" value="createdAt" style="ellipse;whiteSpace=wrap;html=1;align=center;" parent="1" vertex="1">
          <mxGeometry x="20" y="950" width="100" height="40" as="geometry" />
        </mxCell>
        <mxCell id="KhTm1GceVhpEBvx1IbzX-162" value="updatedAt" style="ellipse;whiteSpace=wrap;html=1;align=center;" parent="1" vertex="1">
          <mxGeometry x="230" y="950" width="100" height="40" as="geometry" />
        </mxCell>
        <mxCell id="KhTm1GceVhpEBvx1IbzX-163" value="" style="endArrow=none;html=1;rounded=0;entryX=0;entryY=1;entryDx=0;entryDy=0;" parent="1" source="KhTm1GceVhpEBvx1IbzX-161" target="KhTm1GceVhpEBvx1IbzX-158" edge="1">
          <mxGeometry relative="1" as="geometry">
            <mxPoint x="60" y="947" as="sourcePoint" />
            <mxPoint x="85" y="881" as="targetPoint" />
          </mxGeometry>
        </mxCell>
        <mxCell id="KhTm1GceVhpEBvx1IbzX-164" value="" style="endArrow=none;html=1;rounded=0;exitX=1;exitY=0.5;exitDx=0;exitDy=0;entryX=0;entryY=0.5;entryDx=0;entryDy=0;" parent="1" source="KhTm1GceVhpEBvx1IbzX-159" target="KhTm1GceVhpEBvx1IbzX-158" edge="1">
          <mxGeometry relative="1" as="geometry">
            <mxPoint x="115" y="997" as="sourcePoint" />
            <mxPoint x="140" y="931" as="targetPoint" />
          </mxGeometry>
        </mxCell>
        <mxCell id="KhTm1GceVhpEBvx1IbzX-165" value="" style="endArrow=none;html=1;rounded=0;exitX=0;exitY=0;exitDx=0;exitDy=0;" parent="1" source="KhTm1GceVhpEBvx1IbzX-158" target="KhTm1GceVhpEBvx1IbzX-160" edge="1">
          <mxGeometry relative="1" as="geometry">
            <mxPoint x="294" y="1008" as="sourcePoint" />
            <mxPoint x="270" y="941" as="targetPoint" />
          </mxGeometry>
        </mxCell>
        <mxCell id="KhTm1GceVhpEBvx1IbzX-166" value="bookId" style="ellipse;whiteSpace=wrap;html=1;align=center;" parent="1" vertex="1">
          <mxGeometry x="320" y="880" width="100" height="40" as="geometry" />
        </mxCell>
        <mxCell id="KhTm1GceVhpEBvx1IbzX-167" value="quantity" style="ellipse;whiteSpace=wrap;html=1;align=center;" parent="1" vertex="1">
          <mxGeometry x="260" y="820" width="100" height="40" as="geometry" />
        </mxCell>
        <mxCell id="KhTm1GceVhpEBvx1IbzX-168" value="" style="endArrow=none;html=1;rounded=0;entryX=1;entryY=1;entryDx=0;entryDy=0;" parent="1" source="KhTm1GceVhpEBvx1IbzX-162" target="KhTm1GceVhpEBvx1IbzX-158" edge="1">
          <mxGeometry relative="1" as="geometry">
            <mxPoint x="290" y="910" as="sourcePoint" />
            <mxPoint x="186" y="921" as="targetPoint" />
          </mxGeometry>
        </mxCell>
        <mxCell id="KhTm1GceVhpEBvx1IbzX-169" value="" style="endArrow=none;html=1;rounded=0;entryX=0;entryY=0.5;entryDx=0;entryDy=0;exitX=1;exitY=0.5;exitDx=0;exitDy=0;" parent="1" source="KhTm1GceVhpEBvx1IbzX-158" target="KhTm1GceVhpEBvx1IbzX-166" edge="1">
          <mxGeometry relative="1" as="geometry">
            <mxPoint x="184" y="990" as="sourcePoint" />
            <mxPoint x="196" y="931" as="targetPoint" />
          </mxGeometry>
        </mxCell>
        <mxCell id="KhTm1GceVhpEBvx1IbzX-170" value="" style="endArrow=none;html=1;rounded=0;exitX=1;exitY=0;exitDx=0;exitDy=0;entryX=0;entryY=1;entryDx=0;entryDy=0;" parent="1" source="KhTm1GceVhpEBvx1IbzX-158" target="KhTm1GceVhpEBvx1IbzX-167" edge="1">
          <mxGeometry relative="1" as="geometry">
            <mxPoint x="270" y="889" as="sourcePoint" />
            <mxPoint x="269.61871592442003" y="857.6785318620241" as="targetPoint" />
          </mxGeometry>
        </mxCell>
        <mxCell id="KhTm1GceVhpEBvx1IbzX-171" value="Order_books" style="whiteSpace=wrap;html=1;align=center;" parent="1" vertex="1">
          <mxGeometry x="672" y="880" width="120" height="40" as="geometry" />
        </mxCell>
        <mxCell id="KhTm1GceVhpEBvx1IbzX-172" value="id" style="ellipse;whiteSpace=wrap;html=1;align=center;" parent="1" vertex="1">
          <mxGeometry x="500" y="880" width="100" height="40" as="geometry" />
        </mxCell>
        <mxCell id="KhTm1GceVhpEBvx1IbzX-173" value="orderId" style="ellipse;whiteSpace=wrap;html=1;align=center;" parent="1" vertex="1">
          <mxGeometry x="545" y="808" width="100" height="40" as="geometry" />
        </mxCell>
        <mxCell id="KhTm1GceVhpEBvx1IbzX-174" value="bookId" style="ellipse;whiteSpace=wrap;html=1;align=center;" parent="1" vertex="1">
          <mxGeometry x="792" y="808" width="100" height="40" as="geometry" />
        </mxCell>
        <mxCell id="KhTm1GceVhpEBvx1IbzX-175" value="price" style="ellipse;whiteSpace=wrap;html=1;align=center;" parent="1" vertex="1">
          <mxGeometry x="800" y="960" width="100" height="40" as="geometry" />
        </mxCell>
        <mxCell id="KhTm1GceVhpEBvx1IbzX-176" value="quantity" style="ellipse;whiteSpace=wrap;html=1;align=center;" parent="1" vertex="1">
          <mxGeometry x="850" y="880" width="100" height="40" as="geometry" />
        </mxCell>
        <mxCell id="KhTm1GceVhpEBvx1IbzX-177" value="createdAt" style="ellipse;whiteSpace=wrap;html=1;align=center;" parent="1" vertex="1">
          <mxGeometry x="542" y="960" width="100" height="40" as="geometry" />
        </mxCell>
        <mxCell id="KhTm1GceVhpEBvx1IbzX-178" value="updatedAt" style="ellipse;whiteSpace=wrap;html=1;align=center;" parent="1" vertex="1">
          <mxGeometry x="682" y="980" width="100" height="40" as="geometry" />
        </mxCell>
        <mxCell id="KhTm1GceVhpEBvx1IbzX-179" value="" style="endArrow=none;html=1;rounded=0;exitX=1;exitY=0;exitDx=0;exitDy=0;entryX=0;entryY=1;entryDx=0;entryDy=0;" parent="1" source="KhTm1GceVhpEBvx1IbzX-177" target="KhTm1GceVhpEBvx1IbzX-171" edge="1">
          <mxGeometry relative="1" as="geometry">
            <mxPoint x="612" y="956" as="sourcePoint" />
            <mxPoint x="637" y="890" as="targetPoint" />
          </mxGeometry>
        </mxCell>
        <mxCell id="KhTm1GceVhpEBvx1IbzX-180" value="" style="endArrow=none;html=1;rounded=0;exitX=1;exitY=0.5;exitDx=0;exitDy=0;entryX=0;entryY=0.5;entryDx=0;entryDy=0;" parent="1" source="KhTm1GceVhpEBvx1IbzX-172" target="KhTm1GceVhpEBvx1IbzX-171" edge="1">
          <mxGeometry relative="1" as="geometry">
            <mxPoint x="592" y="900" as="sourcePoint" />
            <mxPoint x="692" y="940" as="targetPoint" />
          </mxGeometry>
        </mxCell>
        <mxCell id="KhTm1GceVhpEBvx1IbzX-181" value="" style="endArrow=none;html=1;rounded=0;exitX=0.5;exitY=0;exitDx=0;exitDy=0;entryX=0.5;entryY=1;entryDx=0;entryDy=0;" parent="1" source="KhTm1GceVhpEBvx1IbzX-178" target="KhTm1GceVhpEBvx1IbzX-171" edge="1">
          <mxGeometry relative="1" as="geometry">
            <mxPoint x="687" y="1026" as="sourcePoint" />
            <mxPoint x="712" y="960" as="targetPoint" />
          </mxGeometry>
        </mxCell>
        <mxCell id="KhTm1GceVhpEBvx1IbzX-182" value="" style="endArrow=none;html=1;rounded=0;exitX=1;exitY=0;exitDx=0;exitDy=0;" parent="1" source="KhTm1GceVhpEBvx1IbzX-171" target="KhTm1GceVhpEBvx1IbzX-174" edge="1">
          <mxGeometry relative="1" as="geometry">
            <mxPoint x="826" y="997" as="sourcePoint" />
            <mxPoint x="802" y="930" as="targetPoint" />
          </mxGeometry>
        </mxCell>
        <mxCell id="KhTm1GceVhpEBvx1IbzX-183" value="" style="endArrow=none;html=1;rounded=0;exitX=1;exitY=0.5;exitDx=0;exitDy=0;" parent="1" source="KhTm1GceVhpEBvx1IbzX-171" target="KhTm1GceVhpEBvx1IbzX-176" edge="1">
          <mxGeometry relative="1" as="geometry">
            <mxPoint x="836" y="1007" as="sourcePoint" />
            <mxPoint x="812" y="940" as="targetPoint" />
          </mxGeometry>
        </mxCell>
        <mxCell id="KhTm1GceVhpEBvx1IbzX-184" value="" style="endArrow=none;html=1;rounded=0;exitX=1;exitY=1;exitDx=0;exitDy=0;" parent="1" source="KhTm1GceVhpEBvx1IbzX-171" target="KhTm1GceVhpEBvx1IbzX-175" edge="1">
          <mxGeometry relative="1" as="geometry">
            <mxPoint x="846" y="1017" as="sourcePoint" />
            <mxPoint x="822" y="950" as="targetPoint" />
          </mxGeometry>
        </mxCell>
        <mxCell id="KhTm1GceVhpEBvx1IbzX-185" value="" style="endArrow=none;html=1;rounded=0;entryX=0;entryY=0;entryDx=0;entryDy=0;" parent="1" source="KhTm1GceVhpEBvx1IbzX-173" target="KhTm1GceVhpEBvx1IbzX-171" edge="1">
          <mxGeometry relative="1" as="geometry">
            <mxPoint x="602" y="910" as="sourcePoint" />
            <mxPoint x="682" y="897" as="targetPoint" />
          </mxGeometry>
        </mxCell>
        <mxCell id="KhTm1GceVhpEBvx1IbzX-186" value="" style="endArrow=classic;html=1;rounded=0;exitX=0;exitY=0.25;exitDx=0;exitDy=0;entryX=0.5;entryY=1;entryDx=0;entryDy=0;" parent="1" source="KhTm1GceVhpEBvx1IbzX-1" target="KhTm1GceVhpEBvx1IbzX-68" edge="1">
          <mxGeometry width="50" height="50" relative="1" as="geometry">
            <mxPoint x="180" y="140" as="sourcePoint" />
            <mxPoint x="230" y="90" as="targetPoint" />
            <Array as="points">
              <mxPoint x="-170" y="250" />
              <mxPoint x="-170" y="1080" />
              <mxPoint x="1270" y="1080" />
            </Array>
          </mxGeometry>
        </mxCell>
        <mxCell id="KhTm1GceVhpEBvx1IbzX-264" value="M" style="edgeLabel;html=1;align=center;verticalAlign=middle;resizable=0;points=[];" parent="KhTm1GceVhpEBvx1IbzX-186" vertex="1" connectable="0">
          <mxGeometry x="0.9796" relative="1" as="geometry">
            <mxPoint as="offset" />
          </mxGeometry>
        </mxCell>
        <mxCell id="KhTm1GceVhpEBvx1IbzX-265" value="has" style="edgeLabel;html=1;align=center;verticalAlign=middle;resizable=0;points=[];" parent="KhTm1GceVhpEBvx1IbzX-186" vertex="1" connectable="0">
          <mxGeometry x="0.3084" y="-1" relative="1" as="geometry">
            <mxPoint as="offset" />
          </mxGeometry>
        </mxCell>
        <mxCell id="KhTm1GceVhpEBvx1IbzX-266" value="1" style="edgeLabel;html=1;align=center;verticalAlign=middle;resizable=0;points=[];" parent="KhTm1GceVhpEBvx1IbzX-186" vertex="1" connectable="0">
          <mxGeometry x="-0.9813" relative="1" as="geometry">
            <mxPoint as="offset" />
          </mxGeometry>
        </mxCell>
        <mxCell id="KhTm1GceVhpEBvx1IbzX-187" value="" style="endArrow=classic;html=1;rounded=0;exitX=0.5;exitY=1;exitDx=0;exitDy=0;entryX=0.5;entryY=0;entryDx=0;entryDy=0;" parent="1" source="KhTm1GceVhpEBvx1IbzX-1" target="KhTm1GceVhpEBvx1IbzX-149" edge="1">
          <mxGeometry width="50" height="50" relative="1" as="geometry">
            <mxPoint x="200" y="450" as="sourcePoint" />
            <mxPoint x="230" y="500" as="targetPoint" />
          </mxGeometry>
        </mxCell>
        <mxCell id="KhTm1GceVhpEBvx1IbzX-271" value="1" style="edgeLabel;html=1;align=center;verticalAlign=middle;resizable=0;points=[];" parent="KhTm1GceVhpEBvx1IbzX-187" vertex="1" connectable="0">
          <mxGeometry x="-0.9119" y="-1" relative="1" as="geometry">
            <mxPoint as="offset" />
          </mxGeometry>
        </mxCell>
        <mxCell id="KhTm1GceVhpEBvx1IbzX-283" value="has" style="edgeLabel;html=1;align=center;verticalAlign=middle;resizable=0;points=[];" parent="KhTm1GceVhpEBvx1IbzX-187" vertex="1" connectable="0">
          <mxGeometry x="0.1424" relative="1" as="geometry">
            <mxPoint as="offset" />
          </mxGeometry>
        </mxCell>
        <mxCell id="KhTm1GceVhpEBvx1IbzX-284" value="1" style="edgeLabel;html=1;align=center;verticalAlign=middle;resizable=0;points=[];" parent="KhTm1GceVhpEBvx1IbzX-187" vertex="1" connectable="0">
          <mxGeometry x="0.8674" y="1" relative="1" as="geometry">
            <mxPoint as="offset" />
          </mxGeometry>
        </mxCell>
        <mxCell id="KhTm1GceVhpEBvx1IbzX-189" value="" style="endArrow=classic;html=1;rounded=0;exitX=0.587;exitY=-0.013;exitDx=0;exitDy=0;exitPerimeter=0;entryX=0.4;entryY=1;entryDx=0;entryDy=0;entryPerimeter=0;" parent="1" source="KhTm1GceVhpEBvx1IbzX-1" target="KhTm1GceVhpEBvx1IbzX-87" edge="1">
          <mxGeometry width="50" height="50" relative="1" as="geometry">
            <mxPoint x="190" y="240" as="sourcePoint" />
            <mxPoint x="750" y="-70" as="targetPoint" />
            <Array as="points">
              <mxPoint x="190" y="120" />
              <mxPoint x="470" y="120" />
              <mxPoint x="730" y="120" />
            </Array>
          </mxGeometry>
        </mxCell>
        <mxCell id="KhTm1GceVhpEBvx1IbzX-267" value="1" style="edgeLabel;html=1;align=center;verticalAlign=middle;resizable=0;points=[];" parent="KhTm1GceVhpEBvx1IbzX-189" vertex="1" connectable="0">
          <mxGeometry x="-0.9482" relative="1" as="geometry">
            <mxPoint as="offset" />
          </mxGeometry>
        </mxCell>
        <mxCell id="KhTm1GceVhpEBvx1IbzX-272" value="add/manage" style="edgeLabel;html=1;align=center;verticalAlign=middle;resizable=0;points=[];" parent="KhTm1GceVhpEBvx1IbzX-189" vertex="1" connectable="0">
          <mxGeometry x="-0.1279" y="-1" relative="1" as="geometry">
            <mxPoint as="offset" />
          </mxGeometry>
        </mxCell>
        <mxCell id="KhTm1GceVhpEBvx1IbzX-276" value="M" style="edgeLabel;html=1;align=center;verticalAlign=middle;resizable=0;points=[];" parent="KhTm1GceVhpEBvx1IbzX-189" vertex="1" connectable="0">
          <mxGeometry x="0.9448" y="2" relative="1" as="geometry">
            <mxPoint as="offset" />
          </mxGeometry>
        </mxCell>
        <mxCell id="KhTm1GceVhpEBvx1IbzX-190" value="" style="endArrow=classic;html=1;rounded=0;entryX=0.574;entryY=1.012;entryDx=0;entryDy=0;entryPerimeter=0;exitX=0;exitY=0.25;exitDx=0;exitDy=0;" parent="1" source="KhTm1GceVhpEBvx1IbzX-24" target="KhTm1GceVhpEBvx1IbzX-87" edge="1">
          <mxGeometry width="50" height="50" relative="1" as="geometry">
            <mxPoint x="840" y="260" as="sourcePoint" />
            <mxPoint x="772" y="-100" as="targetPoint" />
            <Array as="points">
              <mxPoint x="751" y="250" />
            </Array>
          </mxGeometry>
        </mxCell>
        <mxCell id="KhTm1GceVhpEBvx1IbzX-277" value="M" style="edgeLabel;html=1;align=center;verticalAlign=middle;resizable=0;points=[];" parent="KhTm1GceVhpEBvx1IbzX-190" vertex="1" connectable="0">
          <mxGeometry x="0.9391" y="1" relative="1" as="geometry">
            <mxPoint as="offset" />
          </mxGeometry>
        </mxCell>
        <mxCell id="KhTm1GceVhpEBvx1IbzX-280" value="1" style="edgeLabel;html=1;align=center;verticalAlign=middle;resizable=0;points=[];" parent="KhTm1GceVhpEBvx1IbzX-190" vertex="1" connectable="0">
          <mxGeometry x="-0.9289" y="-3" relative="1" as="geometry">
            <mxPoint as="offset" />
          </mxGeometry>
        </mxCell>
        <mxCell id="KhTm1GceVhpEBvx1IbzX-301" value="has" style="edgeLabel;html=1;align=center;verticalAlign=middle;resizable=0;points=[];" parent="KhTm1GceVhpEBvx1IbzX-190" vertex="1" connectable="0">
          <mxGeometry x="0.4482" y="-1" relative="1" as="geometry">
            <mxPoint as="offset" />
          </mxGeometry>
        </mxCell>
        <mxCell id="KhTm1GceVhpEBvx1IbzX-194" value="" style="endArrow=classic;html=1;rounded=0;entryX=0.5;entryY=1;entryDx=0;entryDy=0;exitX=0.5;exitY=0;exitDx=0;exitDy=0;" parent="1" source="KhTm1GceVhpEBvx1IbzX-24" target="KhTm1GceVhpEBvx1IbzX-102" edge="1">
          <mxGeometry width="50" height="50" relative="1" as="geometry">
            <mxPoint x="1272" y="270" as="sourcePoint" />
            <mxPoint x="1282" y="-100" as="targetPoint" />
          </mxGeometry>
        </mxCell>
        <mxCell id="KhTm1GceVhpEBvx1IbzX-278" value="1" style="edgeLabel;html=1;align=center;verticalAlign=middle;resizable=0;points=[];" parent="KhTm1GceVhpEBvx1IbzX-194" vertex="1" connectable="0">
          <mxGeometry x="0.8618" y="1" relative="1" as="geometry">
            <mxPoint as="offset" />
          </mxGeometry>
        </mxCell>
        <mxCell id="KhTm1GceVhpEBvx1IbzX-279" value="1" style="edgeLabel;html=1;align=center;verticalAlign=middle;resizable=0;points=[];" parent="KhTm1GceVhpEBvx1IbzX-194" vertex="1" connectable="0">
          <mxGeometry x="-0.8971" y="-1" relative="1" as="geometry">
            <mxPoint as="offset" />
          </mxGeometry>
        </mxCell>
        <mxCell id="KhTm1GceVhpEBvx1IbzX-196" value="" style="endArrow=classic;html=1;rounded=0;exitX=0.5;exitY=1;exitDx=0;exitDy=0;" parent="1" source="KhTm1GceVhpEBvx1IbzX-130" target="KhTm1GceVhpEBvx1IbzX-171" edge="1">
          <mxGeometry width="50" height="50" relative="1" as="geometry">
            <mxPoint x="752" y="740" as="sourcePoint" />
            <mxPoint x="745" y="1139" as="targetPoint" />
          </mxGeometry>
        </mxCell>
        <mxCell id="KhTm1GceVhpEBvx1IbzX-291" value="1" style="edgeLabel;html=1;align=center;verticalAlign=middle;resizable=0;points=[];" parent="KhTm1GceVhpEBvx1IbzX-196" vertex="1" connectable="0">
          <mxGeometry x="-0.8971" relative="1" as="geometry">
            <mxPoint as="offset" />
          </mxGeometry>
        </mxCell>
        <mxCell id="KhTm1GceVhpEBvx1IbzX-292" value="has" style="edgeLabel;html=1;align=center;verticalAlign=middle;resizable=0;points=[];" parent="KhTm1GceVhpEBvx1IbzX-196" vertex="1" connectable="0">
          <mxGeometry x="0.1074" y="-1" relative="1" as="geometry">
            <mxPoint as="offset" />
          </mxGeometry>
        </mxCell>
        <mxCell id="KhTm1GceVhpEBvx1IbzX-293" value="M" style="edgeLabel;html=1;align=center;verticalAlign=middle;resizable=0;points=[];" parent="KhTm1GceVhpEBvx1IbzX-196" vertex="1" connectable="0">
          <mxGeometry x="0.8268" relative="1" as="geometry">
            <mxPoint as="offset" />
          </mxGeometry>
        </mxCell>
        <mxCell id="KhTm1GceVhpEBvx1IbzX-197" value="" style="endArrow=classic;html=1;rounded=0;exitX=0.5;exitY=1;exitDx=0;exitDy=0;entryX=0.5;entryY=0;entryDx=0;entryDy=0;" parent="1" source="KhTm1GceVhpEBvx1IbzX-149" target="KhTm1GceVhpEBvx1IbzX-158" edge="1">
          <mxGeometry width="50" height="50" relative="1" as="geometry">
            <mxPoint x="155" y="800" as="sourcePoint" />
            <mxPoint x="145" y="1220" as="targetPoint" />
          </mxGeometry>
        </mxCell>
        <mxCell id="KhTm1GceVhpEBvx1IbzX-285" value="1" style="edgeLabel;html=1;align=center;verticalAlign=middle;resizable=0;points=[];" parent="KhTm1GceVhpEBvx1IbzX-197" vertex="1" connectable="0">
          <mxGeometry x="-0.8125" y="1" relative="1" as="geometry">
            <mxPoint as="offset" />
          </mxGeometry>
        </mxCell>
        <mxCell id="KhTm1GceVhpEBvx1IbzX-287" value="has" style="edgeLabel;html=1;align=center;verticalAlign=middle;resizable=0;points=[];" parent="KhTm1GceVhpEBvx1IbzX-197" vertex="1" connectable="0">
          <mxGeometry x="-0.0443" relative="1" as="geometry">
            <mxPoint as="offset" />
          </mxGeometry>
        </mxCell>
        <mxCell id="KhTm1GceVhpEBvx1IbzX-288" value="M" style="edgeLabel;html=1;align=center;verticalAlign=middle;resizable=0;points=[];" parent="KhTm1GceVhpEBvx1IbzX-197" vertex="1" connectable="0">
          <mxGeometry x="0.7891" relative="1" as="geometry">
            <mxPoint as="offset" />
          </mxGeometry>
        </mxCell>
        <mxCell id="KhTm1GceVhpEBvx1IbzX-198" style="edgeStyle=orthogonalEdgeStyle;rounded=0;orthogonalLoop=1;jettySize=auto;html=1;exitX=0.5;exitY=1;exitDx=0;exitDy=0;" parent="1" source="KhTm1GceVhpEBvx1IbzX-133" target="KhTm1GceVhpEBvx1IbzX-133" edge="1">
          <mxGeometry relative="1" as="geometry" />
        </mxCell>
        <mxCell id="KhTm1GceVhpEBvx1IbzX-199" value="" style="endArrow=classic;html=1;rounded=0;exitX=1;exitY=0.25;exitDx=0;exitDy=0;entryX=0;entryY=0.25;entryDx=0;entryDy=0;" parent="1" source="KhTm1GceVhpEBvx1IbzX-130" target="KhTm1GceVhpEBvx1IbzX-111" edge="1">
          <mxGeometry width="50" height="50" relative="1" as="geometry">
            <mxPoint x="950" y="630" as="sourcePoint" />
            <mxPoint x="1000" y="580" as="targetPoint" />
          </mxGeometry>
        </mxCell>
        <mxCell id="KhTm1GceVhpEBvx1IbzX-294" value="has" style="edgeLabel;html=1;align=center;verticalAlign=middle;resizable=0;points=[];" parent="KhTm1GceVhpEBvx1IbzX-199" vertex="1" connectable="0">
          <mxGeometry x="-0.0366" y="1" relative="1" as="geometry">
            <mxPoint as="offset" />
          </mxGeometry>
        </mxCell>
        <mxCell id="KhTm1GceVhpEBvx1IbzX-295" value="1" style="edgeLabel;html=1;align=center;verticalAlign=middle;resizable=0;points=[];" parent="KhTm1GceVhpEBvx1IbzX-199" vertex="1" connectable="0">
          <mxGeometry x="0.8781" y="-1" relative="1" as="geometry">
            <mxPoint as="offset" />
          </mxGeometry>
        </mxCell>
        <mxCell id="KhTm1GceVhpEBvx1IbzX-222" value="1" style="text;html=1;align=center;verticalAlign=middle;resizable=0;points=[];autosize=1;strokeColor=none;fillColor=none;" parent="1" vertex="1">
          <mxGeometry x="792" y="590" width="30" height="30" as="geometry" />
        </mxCell>
        <mxCell id="KhTm1GceVhpEBvx1IbzX-237" value="" style="endArrow=classic;html=1;rounded=0;exitX=1;exitY=0.5;exitDx=0;exitDy=0;entryX=0;entryY=0.5;entryDx=0;entryDy=0;" parent="1" source="KhTm1GceVhpEBvx1IbzX-149" target="KhTm1GceVhpEBvx1IbzX-130" edge="1">
          <mxGeometry width="50" height="50" relative="1" as="geometry">
            <mxPoint x="670" y="580" as="sourcePoint" />
            <mxPoint x="720" y="530" as="targetPoint" />
          </mxGeometry>
        </mxCell>
        <mxCell id="KhTm1GceVhpEBvx1IbzX-286" value="1" style="edgeLabel;html=1;align=center;verticalAlign=middle;resizable=0;points=[];" parent="KhTm1GceVhpEBvx1IbzX-237" vertex="1" connectable="0">
          <mxGeometry x="-0.9035" y="2" relative="1" as="geometry">
            <mxPoint as="offset" />
          </mxGeometry>
        </mxCell>
        <mxCell id="KhTm1GceVhpEBvx1IbzX-289" value="1" style="edgeLabel;html=1;align=center;verticalAlign=middle;resizable=0;points=[];" parent="KhTm1GceVhpEBvx1IbzX-237" vertex="1" connectable="0">
          <mxGeometry x="0.8709" relative="1" as="geometry">
            <mxPoint as="offset" />
          </mxGeometry>
        </mxCell>
        <mxCell id="KhTm1GceVhpEBvx1IbzX-240" value="has" style="text;html=1;align=center;verticalAlign=middle;resizable=0;points=[];autosize=1;strokeColor=none;fillColor=none;" parent="1" vertex="1">
          <mxGeometry x="400" y="598" width="40" height="30" as="geometry" />
        </mxCell>
        <mxCell id="KhTm1GceVhpEBvx1IbzX-244" value="" style="endArrow=classic;html=1;rounded=0;exitX=0.999;exitY=0.644;exitDx=0;exitDy=0;exitPerimeter=0;" parent="1" source="KhTm1GceVhpEBvx1IbzX-1" target="KhTm1GceVhpEBvx1IbzX-111" edge="1">
          <mxGeometry width="50" height="50" relative="1" as="geometry">
            <mxPoint x="239.99999999999977" y="232" as="sourcePoint" />
            <mxPoint x="1272" y="572" as="targetPoint" />
            <Array as="points">
              <mxPoint x="960" y="270" />
              <mxPoint x="960" y="440" />
              <mxPoint x="1272" y="440" />
            </Array>
          </mxGeometry>
        </mxCell>
        <mxCell id="KhTm1GceVhpEBvx1IbzX-269" value="1" style="edgeLabel;html=1;align=center;verticalAlign=middle;resizable=0;points=[];" parent="KhTm1GceVhpEBvx1IbzX-244" vertex="1" connectable="0">
          <mxGeometry x="-0.9745" y="-1" relative="1" as="geometry">
            <mxPoint as="offset" />
          </mxGeometry>
        </mxCell>
        <mxCell id="KhTm1GceVhpEBvx1IbzX-275" value="make/view" style="edgeLabel;html=1;align=center;verticalAlign=middle;resizable=0;points=[];" parent="KhTm1GceVhpEBvx1IbzX-244" vertex="1" connectable="0">
          <mxGeometry x="0.225" y="-2" relative="1" as="geometry">
            <mxPoint as="offset" />
          </mxGeometry>
        </mxCell>
        <mxCell id="KhTm1GceVhpEBvx1IbzX-296" value="M" style="edgeLabel;html=1;align=center;verticalAlign=middle;resizable=0;points=[];" parent="KhTm1GceVhpEBvx1IbzX-244" vertex="1" connectable="0">
          <mxGeometry x="0.9734" y="-1" relative="1" as="geometry">
            <mxPoint as="offset" />
          </mxGeometry>
        </mxCell>
        <mxCell id="KhTm1GceVhpEBvx1IbzX-250" value="" style="endArrow=classic;html=1;rounded=0;exitX=0.996;exitY=0.411;exitDx=0;exitDy=0;entryX=0;entryY=0.5;entryDx=0;entryDy=0;exitPerimeter=0;" parent="1" source="KhTm1GceVhpEBvx1IbzX-1" target="KhTm1GceVhpEBvx1IbzX-24" edge="1">
          <mxGeometry width="50" height="50" relative="1" as="geometry">
            <mxPoint x="460" y="260" as="sourcePoint" />
            <mxPoint x="810" y="230" as="targetPoint" />
          </mxGeometry>
        </mxCell>
        <mxCell id="KhTm1GceVhpEBvx1IbzX-268" value="1" style="edgeLabel;html=1;align=center;verticalAlign=middle;resizable=0;points=[];" parent="KhTm1GceVhpEBvx1IbzX-250" vertex="1" connectable="0">
          <mxGeometry x="-0.9639" relative="1" as="geometry">
            <mxPoint as="offset" />
          </mxGeometry>
        </mxCell>
        <mxCell id="KhTm1GceVhpEBvx1IbzX-273" value="view/manage" style="edgeLabel;html=1;align=center;verticalAlign=middle;resizable=0;points=[];" parent="KhTm1GceVhpEBvx1IbzX-250" vertex="1" connectable="0">
          <mxGeometry x="-0.4936" y="1" relative="1" as="geometry">
            <mxPoint as="offset" />
          </mxGeometry>
        </mxCell>
        <mxCell id="KhTm1GceVhpEBvx1IbzX-281" value="M" style="edgeLabel;html=1;align=center;verticalAlign=middle;resizable=0;points=[];" parent="KhTm1GceVhpEBvx1IbzX-250" vertex="1" connectable="0">
          <mxGeometry x="0.8965" relative="1" as="geometry">
            <mxPoint as="offset" />
          </mxGeometry>
        </mxCell>
        <mxCell id="KhTm1GceVhpEBvx1IbzX-254" value="" style="endArrow=classic;html=1;rounded=0;exitX=1;exitY=1;exitDx=0;exitDy=0;entryX=0.5;entryY=0;entryDx=0;entryDy=0;" parent="1" source="KhTm1GceVhpEBvx1IbzX-1" target="KhTm1GceVhpEBvx1IbzX-130" edge="1">
          <mxGeometry width="50" height="50" relative="1" as="geometry">
            <mxPoint x="300" y="300" as="sourcePoint" />
            <mxPoint x="780" y="390" as="targetPoint" />
            <Array as="points">
              <mxPoint x="730" y="291" />
            </Array>
          </mxGeometry>
        </mxCell>
        <mxCell id="KhTm1GceVhpEBvx1IbzX-270" value="1" style="edgeLabel;html=1;align=center;verticalAlign=middle;resizable=0;points=[];" parent="KhTm1GceVhpEBvx1IbzX-254" vertex="1" connectable="0">
          <mxGeometry x="-0.9509" y="1" relative="1" as="geometry">
            <mxPoint as="offset" />
          </mxGeometry>
        </mxCell>
        <mxCell id="KhTm1GceVhpEBvx1IbzX-274" value="place/view" style="edgeLabel;html=1;align=center;verticalAlign=middle;resizable=0;points=[];" parent="KhTm1GceVhpEBvx1IbzX-254" vertex="1" connectable="0">
          <mxGeometry x="0.3027" y="-2" relative="1" as="geometry">
            <mxPoint as="offset" />
          </mxGeometry>
        </mxCell>
        <mxCell id="KhTm1GceVhpEBvx1IbzX-290" value="M" style="edgeLabel;html=1;align=center;verticalAlign=middle;resizable=0;points=[];" parent="KhTm1GceVhpEBvx1IbzX-254" vertex="1" connectable="0">
          <mxGeometry x="0.9498" relative="1" as="geometry">
            <mxPoint as="offset" />
          </mxGeometry>
        </mxCell>
        <mxCell id="KhTm1GceVhpEBvx1IbzX-259" value="" style="endArrow=classic;html=1;rounded=0;exitX=1;exitY=0.75;exitDx=0;exitDy=0;entryX=0.175;entryY=0;entryDx=0;entryDy=0;entryPerimeter=0;" parent="1" source="KhTm1GceVhpEBvx1IbzX-130" target="KhTm1GceVhpEBvx1IbzX-68" edge="1">
          <mxGeometry width="50" height="50" relative="1" as="geometry">
            <mxPoint x="802" y="620" as="sourcePoint" />
            <mxPoint x="1210" y="820" as="targetPoint" />
            <Array as="points">
              <mxPoint x="980" y="630" />
              <mxPoint x="980" y="800" />
              <mxPoint x="1230" y="800" />
            </Array>
          </mxGeometry>
        </mxCell>
        <mxCell id="KhTm1GceVhpEBvx1IbzX-261" value="1" style="edgeLabel;html=1;align=center;verticalAlign=middle;resizable=0;points=[];" parent="KhTm1GceVhpEBvx1IbzX-259" vertex="1" connectable="0">
          <mxGeometry x="-0.9184" y="1" relative="1" as="geometry">
            <mxPoint as="offset" />
          </mxGeometry>
        </mxCell>
        <mxCell id="KhTm1GceVhpEBvx1IbzX-262" value="1" style="edgeLabel;html=1;align=center;verticalAlign=middle;resizable=0;points=[];" parent="KhTm1GceVhpEBvx1IbzX-259" vertex="1" connectable="0">
          <mxGeometry x="0.9347" relative="1" as="geometry">
            <mxPoint as="offset" />
          </mxGeometry>
        </mxCell>
        <mxCell id="KhTm1GceVhpEBvx1IbzX-263" value="has" style="edgeLabel;html=1;align=center;verticalAlign=middle;resizable=0;points=[];" parent="KhTm1GceVhpEBvx1IbzX-259" vertex="1" connectable="0">
          <mxGeometry x="0.1118" y="2" relative="1" as="geometry">
            <mxPoint as="offset" />
          </mxGeometry>
        </mxCell>
        <mxCell id="KhTm1GceVhpEBvx1IbzX-297" value="" style="endArrow=classic;html=1;rounded=0;exitX=0.338;exitY=-0.002;exitDx=0;exitDy=0;exitPerimeter=0;entryX=0.5;entryY=0;entryDx=0;entryDy=0;" parent="1" source="KhTm1GceVhpEBvx1IbzX-1" target="KhTm1GceVhpEBvx1IbzX-102" edge="1">
          <mxGeometry width="50" height="50" relative="1" as="geometry">
            <mxPoint x="110" y="210" as="sourcePoint" />
            <mxPoint x="1270" y="-240" as="targetPoint" />
            <Array as="points">
              <mxPoint x="161" y="-160" />
              <mxPoint x="1270" y="-160" />
            </Array>
          </mxGeometry>
        </mxCell>
        <mxCell id="KhTm1GceVhpEBvx1IbzX-298" value="1" style="edgeLabel;html=1;align=center;verticalAlign=middle;resizable=0;points=[];" parent="KhTm1GceVhpEBvx1IbzX-297" vertex="1" connectable="0">
          <mxGeometry x="-0.9736" y="-1" relative="1" as="geometry">
            <mxPoint as="offset" />
          </mxGeometry>
        </mxCell>
        <mxCell id="KhTm1GceVhpEBvx1IbzX-299" value="M" style="edgeLabel;html=1;align=center;verticalAlign=middle;resizable=0;points=[];" parent="KhTm1GceVhpEBvx1IbzX-297" vertex="1" connectable="0">
          <mxGeometry x="0.974" y="1" relative="1" as="geometry">
            <mxPoint as="offset" />
          </mxGeometry>
        </mxCell>
        <mxCell id="KhTm1GceVhpEBvx1IbzX-300" value="Manage" style="edgeLabel;html=1;align=center;verticalAlign=middle;resizable=0;points=[];" parent="KhTm1GceVhpEBvx1IbzX-297" vertex="1" connectable="0">
          <mxGeometry x="0.1706" relative="1" as="geometry">
            <mxPoint x="-1" as="offset" />
          </mxGeometry>
        </mxCell>
        <mxCell id="iQG2Pnmfe8ybitdQ2GuU-1" value="description" style="ellipse;whiteSpace=wrap;html=1;align=center;" parent="1" vertex="1">
          <mxGeometry x="1400" y="-40" width="100" height="40" as="geometry" />
        </mxCell>
        <mxCell id="iQG2Pnmfe8ybitdQ2GuU-3" value="" style="endArrow=none;html=1;rounded=0;entryX=1;entryY=0.5;entryDx=0;entryDy=0;exitX=0;exitY=0.5;exitDx=0;exitDy=0;" parent="1" source="iQG2Pnmfe8ybitdQ2GuU-1" target="KhTm1GceVhpEBvx1IbzX-102" edge="1">
          <mxGeometry relative="1" as="geometry">
            <mxPoint x="1360" y="60" as="sourcePoint" />
            <mxPoint x="1340" y="10" as="targetPoint" />
          </mxGeometry>
        </mxCell>
        <mxCell id="iQG2Pnmfe8ybitdQ2GuU-4" value="status" style="ellipse;whiteSpace=wrap;html=1;align=center;" parent="1" vertex="1">
          <mxGeometry x="1160" y="120" width="100" height="40" as="geometry" />
        </mxCell>
        <mxCell id="iQG2Pnmfe8ybitdQ2GuU-5" value="" style="endArrow=none;html=1;rounded=0;entryX=0.396;entryY=-0.019;entryDx=0;entryDy=0;entryPerimeter=0;" parent="1" source="iQG2Pnmfe8ybitdQ2GuU-4" target="KhTm1GceVhpEBvx1IbzX-24" edge="1">
          <mxGeometry relative="1" as="geometry">
            <mxPoint x="1186" y="207" as="sourcePoint" />
            <mxPoint x="1252" y="250" as="targetPoint" />
          </mxGeometry>
        </mxCell>
      </root>
    </mxGraphModel>
  </diagram>
</mxfile>
